<svg width="247" height="122" viewBox="0 0 247 122" fill="none" xmlns="http://www.w3.org/2000/svg">
<path d="M69.2252 34.5747C68.9061 34.5987 68.6199 34.5266 68.3666 34.3584C68.1133 34.1902 67.9637 33.8004 67.9177 33.1887C67.8968 32.9095 67.963 32.4566 68.1166 31.83C68.2701 31.2035 68.4821 30.4655 68.7526 29.6162C69.0354 28.7526 69.3545 27.8395 69.7101 26.8768C70.0657 25.9141 70.4417 24.9566 70.8382 24.0043C71.2347 23.0519 71.6228 22.167 72.0027 21.3496C72.3826 20.5322 72.7382 19.837 73.0695 19.2639C73.4132 18.6765 73.6977 18.2808 73.923 18.0766C74.2497 17.7981 74.5859 17.6458 74.9316 17.6198C75.1178 17.6059 75.2988 17.6123 75.4746 17.6392C75.6638 17.6651 75.8216 17.7201 75.9483 17.8042C76.2405 17.9561 76.5114 18.27 76.7611 18.746C77.0231 19.2077 77.2659 19.7711 77.4897 20.4362C77.7268 21.1003 77.9346 21.8201 78.1131 22.5956C78.304 23.3568 78.4744 24.1128 78.6244 24.8637C79.1247 24.7592 79.4679 24.7 79.654 24.6861C80.0529 24.6561 80.4097 24.6895 80.7245 24.7862C81.0383 24.8696 81.2148 25.0836 81.2541 25.4283C81.3056 25.7587 81.2202 26.0459 80.9979 26.2899C80.7888 26.5329 80.5088 26.7211 80.1578 26.8544C80.0022 26.9196 79.6231 27.035 79.0205 27.2006C79.1113 27.8757 79.1742 28.4459 79.2091 28.9112C79.298 30.0946 79.3004 31.017 79.2164 31.6785C79.1456 32.339 79.021 32.8163 78.8425 33.1105C78.6774 33.4037 78.4904 33.5848 78.2817 33.654C78.0872 33.7355 77.9102 33.7822 77.7507 33.7942C77.7374 33.7952 77.7241 33.7962 77.7108 33.7972C77.3252 33.8261 77.0319 33.7479 76.8307 33.5624C76.6429 33.3759 76.5315 33.05 76.4966 32.5847L76.3903 31.1687C76.3573 30.7299 76.3137 30.2384 76.2595 29.6943C76.2053 29.1502 76.1352 28.5738 76.0494 27.9652C75.275 28.157 74.5005 28.3489 73.726 28.5408C72.9638 28.7183 72.307 28.8746 71.7556 29.0096C71.5479 29.6269 71.3689 30.1819 71.2187 30.6745C71.0675 31.1538 70.9687 31.529 70.9222 31.7999C70.7717 32.4663 70.6239 32.9922 70.4791 33.3775C70.3332 33.7494 70.1859 34.0146 70.0374 34.1728C69.9031 34.3433 69.7705 34.4469 69.6395 34.4835C69.5095 34.5333 69.3714 34.5637 69.2252 34.5747ZM72.6683 26.4742C73.2167 26.2993 73.7462 26.1392 74.2568 25.9939C74.7663 25.8353 75.2503 25.692 75.7087 25.564C75.5803 24.7446 75.4401 23.9462 75.2881 23.1687C75.1362 22.3913 74.9774 21.7012 74.8118 21.0986C74.516 21.7893 74.1704 22.6175 73.7749 23.5832C73.3917 24.5346 73.0229 25.4982 72.6683 26.4742ZM90.0293 33.3736C89.7235 33.3965 89.4348 33.2912 89.1632 33.0575C88.9059 32.8362 88.7558 32.4396 88.7128 31.8679C88.6809 31.4424 88.6697 30.8483 88.6793 30.0854C88.7011 29.3083 88.773 28.3067 88.8949 27.0808C88.5014 28.0731 88.08 28.9605 87.6307 29.743C87.1813 30.5255 86.7267 31.1479 86.2667 31.6104C85.819 32.0585 85.3757 32.299 84.937 32.332C84.2323 32.3849 83.6579 32.2141 83.2138 31.8195C82.7687 31.4117 82.5012 30.6095 82.4113 29.4129C82.3684 28.8412 82.3665 28.1928 82.4057 27.4678C82.4581 26.7419 82.5372 26.0139 82.6428 25.284C82.7484 24.554 82.8601 23.9038 82.9777 23.3334C83.1076 22.7487 83.2285 22.3117 83.3405 22.0225C83.4289 21.7752 83.5479 21.5791 83.6975 21.4342C83.8603 21.2882 84.0747 21.2053 84.3407 21.1853C84.7661 21.1534 85.1024 21.2685 85.3494 21.5307C85.5964 21.793 85.7308 22.0704 85.7528 22.3629C85.7698 22.5889 85.741 22.9187 85.6666 23.3521C85.6055 23.7846 85.5213 24.2656 85.414 24.7951C85.3199 25.3236 85.2203 25.8659 85.115 26.422C85.0096 26.9781 84.9218 27.4995 84.8513 27.9862C84.7942 28.4718 84.7781 28.8808 84.8031 29.2132C84.834 29.6254 85.0091 29.8195 85.3282 29.7955C85.5143 29.7816 85.7401 29.5841 86.0057 29.2031C86.2845 28.8212 86.5677 28.3186 86.8552 27.6953C87.1549 27.0577 87.4507 26.367 87.7425 25.623C88.0466 24.8648 88.3169 24.1024 88.5535 23.3359C88.8024 22.5551 89.0093 21.8376 89.1741 21.1834C89.2771 20.7745 89.4356 20.4818 89.6497 20.3053C89.8637 20.1288 90.117 20.0295 90.4095 20.0076C90.8616 19.9736 91.2167 20.074 91.475 20.3086C91.7466 20.5423 91.8999 20.8918 91.9348 21.3571C91.9508 21.5699 91.9445 21.9314 91.916 22.4416C91.8875 22.9518 91.8455 23.55 91.79 24.2361C91.7479 24.9212 91.6888 25.6476 91.6127 26.4155C91.5367 27.1833 91.4596 27.9379 91.3816 28.6791C91.3168 29.4194 91.2476 30.0998 91.1738 30.7204C91.0991 31.3277 91.0353 31.8139 90.9825 32.1788C90.8895 32.7207 90.7539 33.0517 90.5757 33.1721C90.3976 33.2924 90.2154 33.3596 90.0293 33.3736ZM107.236 21.0706C107.248 21.2302 107.205 21.3738 107.107 21.5014C107.01 21.6291 106.884 21.7321 106.73 21.8106C106.511 21.9207 106.127 22.0698 105.58 22.258C105.032 22.4461 104.367 22.6633 103.583 22.9093C102.813 23.1544 101.983 23.4105 101.094 23.6779C100.203 23.9319 99.3128 24.1793 98.4216 24.42C98.1718 25.7224 97.9183 27.0651 97.6611 28.4483C97.403 29.8181 97.1433 31.168 96.8822 32.498C96.7841 32.9733 96.6511 33.3376 96.4829 33.5909C96.3157 33.8575 96.0061 34.0078 95.554 34.0418C95.0621 34.0787 94.7177 33.9441 94.5209 33.638C94.3384 33.3442 94.287 32.9268 94.3667 32.386C94.6036 30.9108 94.8214 29.5373 95.02 28.2655C95.232 26.9928 95.4021 25.9638 95.5303 25.1787C94.7425 25.3715 94.0525 25.5303 93.4602 25.655C92.8668 25.7664 92.4434 25.8249 92.1897 25.8306C91.9085 25.825 91.6674 25.7295 91.4663 25.544C91.2651 25.3585 91.1602 25.119 91.1516 24.8255C91.1582 24.5576 91.2609 24.3226 91.4596 24.1205C91.6574 23.9051 91.901 23.7664 92.1906 23.7046C92.5997 23.6338 93.1271 23.534 93.7726 23.4053C94.4181 23.2766 95.1291 23.1296 95.9056 22.9643C96.0275 22.2733 96.1745 21.5603 96.3466 20.8253C96.5177 20.0771 96.698 19.3616 96.8874 18.6788C97.0891 17.9817 97.284 17.3721 97.4721 16.8499C97.6602 16.3277 97.8388 15.9465 98.008 15.7065C98.1413 15.5227 98.3108 15.3763 98.5165 15.2672C98.7356 15.1572 98.9515 15.0942 99.1642 15.0782C99.4434 15.0572 99.6769 15.14 99.8647 15.3264C100.053 15.5129 100.156 15.7391 100.176 16.005C100.184 16.1114 100.186 16.2249 100.182 16.3455C100.177 16.4529 100.158 16.5613 100.126 16.6706C99.9234 17.3544 99.7113 18.1793 99.4896 19.1452C99.2813 20.1102 99.0667 21.1693 98.8457 22.3224C99.8319 22.1012 100.798 21.8816 101.745 21.6635C102.703 21.431 103.57 21.2189 104.344 21.027C105.131 20.8209 105.76 20.6466 106.23 20.5043C106.489 20.3913 106.717 20.3943 106.913 20.5132C107.108 20.6189 107.216 20.8047 107.236 21.0706ZM106.438 31.9008C105.494 31.9717 104.711 31.6962 104.09 31.0743C103.467 30.4391 103.113 29.5565 103.028 28.4263C103.001 28.0673 103.02 27.6982 103.086 27.3189C103.164 26.9387 103.264 26.5835 103.387 26.2534C103.298 26.1397 103.22 25.9918 103.153 25.8097C103.098 25.6132 103.06 25.382 103.04 25.1161C102.976 24.2519 103.069 23.4493 103.321 22.7084C103.572 21.9541 103.937 21.2916 104.415 20.7208C104.894 20.1501 105.435 19.695 106.038 19.3555C106.64 19.0161 107.261 18.8224 107.899 18.7745C108.99 18.6926 109.908 18.9914 110.654 19.6707C111.414 20.3491 111.851 21.4594 111.967 23.0018C112.025 23.7729 111.964 24.5664 111.785 25.3821C111.605 26.1978 111.337 26.9868 110.98 27.749C110.635 28.4969 110.218 29.1767 109.729 29.7884C109.253 30.3991 108.729 30.8931 108.156 31.2704C107.596 31.6467 107.023 31.8568 106.438 31.9008ZM105.613 25.1837C105.69 25.325 105.736 25.4953 105.751 25.6948C105.766 25.8942 105.742 26.1033 105.678 26.322C105.614 26.5407 105.556 26.8326 105.503 27.1976C105.449 27.5492 105.447 28.0508 105.496 28.7023C105.509 28.8752 105.54 29.0199 105.589 29.1366C105.65 29.239 105.767 29.2837 105.94 29.2707C106.392 29.2368 106.806 29.0585 107.183 28.7361C107.573 28.4126 107.91 27.9996 108.193 27.497C108.49 26.9934 108.729 26.4406 108.911 25.8386C109.105 25.2223 109.239 24.6038 109.313 23.9832C109.399 23.3484 109.422 22.765 109.382 22.2332C109.356 21.8875 109.272 21.6531 109.129 21.5302C108.986 21.4072 108.748 21.3582 108.416 21.3831C107.964 21.4171 107.51 21.5983 107.053 21.9267C106.609 22.2409 106.245 22.6559 105.963 23.1718C105.68 23.6744 105.561 24.2315 105.607 24.8432C105.616 24.9628 105.618 25.0763 105.613 25.1837ZM130.913 28.9398C130.887 29.6637 130.489 30.0547 129.718 30.1126C129.319 30.1425 128.991 30.0468 128.733 29.8255C128.489 29.6031 128.35 29.2659 128.316 28.8139C128.259 28.0427 128.23 27.2159 128.23 26.3333C128.243 25.4365 128.269 24.5321 128.307 23.62C128.359 22.7068 128.407 21.8341 128.452 21.0018C128.025 21.7291 127.573 22.4784 127.096 23.2496C126.619 24.0208 126.141 24.7721 125.661 25.5034C125.181 26.2347 124.716 26.8981 124.266 27.4934C123.828 28.0745 123.423 28.5462 123.049 28.9086C122.674 29.2576 122.353 29.4421 122.087 29.4621C121.449 29.51 120.88 29.3188 120.38 28.8884C119.878 28.4447 119.6 27.8572 119.545 27.1259C119.526 26.8733 119.528 26.5322 119.549 26.1028C119.569 25.66 119.601 25.1897 119.643 24.6917C119.686 24.1938 119.718 23.7234 119.738 23.2807C119.758 22.8379 119.759 22.4902 119.74 22.2376C119.74 22.2376 119.739 22.2243 119.737 22.1977C119.745 22.1302 119.729 22.098 119.69 22.101C119.636 22.105 119.504 22.2955 119.291 22.6724C119.078 23.0361 118.819 23.5101 118.516 24.0945C118.212 24.6789 117.89 25.2914 117.55 25.9319C117.224 26.5715 116.915 27.1697 116.622 27.7265C116.343 28.2823 116.108 28.7144 115.917 29.0229C115.659 29.4969 115.408 29.8032 115.164 29.9419C114.92 30.0805 114.632 30.1623 114.3 30.1873C113.835 30.2222 113.457 30.0968 113.169 29.8109C112.892 29.5108 112.732 29.0749 112.689 28.5031C112.671 28.2638 112.683 27.8885 112.725 27.3773C112.78 26.8651 112.851 26.2981 112.938 25.6766C113.024 25.0417 113.112 24.4267 113.201 23.8317C113.302 23.2224 113.391 22.7077 113.466 22.2875C113.545 21.7334 113.683 21.342 113.879 21.1133C114.088 20.8703 114.366 20.7358 114.711 20.7098C115.522 20.6489 115.958 21.0174 116.018 21.8151C116.029 21.9614 116 22.2042 115.932 22.5436C115.864 22.883 115.78 23.277 115.68 23.7258C115.58 24.1745 115.474 24.6371 115.363 25.1134C115.251 25.5765 115.163 26.0109 115.1 26.4168C115.377 25.8344 115.678 25.2101 116.002 24.544C116.326 23.8778 116.658 23.2244 116.998 22.5839C117.351 21.9423 117.701 21.3544 118.049 20.8202C118.41 20.285 118.772 19.8567 119.136 19.5352C119.498 19.2005 119.853 19.0201 120.198 18.9942C120.544 18.9682 120.893 19.0691 121.244 19.2967C121.594 19.5111 121.89 19.8031 122.132 20.1727C122.386 20.528 122.529 20.9184 122.561 21.3439C122.591 21.7427 122.574 22.2254 122.509 22.7918C122.445 23.3582 122.369 23.9522 122.282 24.5738C122.195 25.1954 122.147 25.8007 122.138 26.3897C122.552 25.8505 122.987 25.2429 123.445 24.5667C123.901 23.8773 124.369 23.1669 124.849 22.4356C125.329 21.7043 125.797 20.9939 126.253 20.3045C126.723 19.614 127.157 18.9864 127.556 18.4216C127.968 17.8558 128.336 17.4071 128.658 17.0753C128.98 16.7302 129.234 16.5507 129.42 16.5367C129.965 16.4958 130.402 16.6101 130.73 16.8797C131.07 17.1349 131.266 17.6149 131.319 18.3196C131.352 18.7583 131.362 19.3326 131.348 20.0422C131.348 20.7509 131.325 21.5214 131.281 22.3537C131.249 23.1718 131.204 24.0041 131.148 24.8507C131.103 25.6831 131.061 26.4551 131.021 27.1668C130.981 27.8784 130.945 28.4694 130.913 28.9398ZM134.491 29.8945C134.066 29.9265 133.671 29.8358 133.307 29.6224C132.945 29.4223 132.65 29.1437 132.422 28.7863C132.194 28.4157 132.063 28.0111 132.03 27.5723C131.968 26.7479 132.087 25.9301 132.388 25.1187C132.701 24.3062 133.13 23.5252 133.676 22.7756C134.221 22.026 134.824 21.3322 135.485 20.6943C136.158 20.0421 136.831 19.4768 137.504 18.9984C138.19 18.519 138.816 18.1377 139.383 17.8544C139.964 17.5702 140.42 17.4156 140.752 17.3906C141.138 17.3617 141.457 17.4246 141.709 17.5795C141.974 17.7201 142.119 17.9632 142.145 18.3089C142.153 18.4153 142.133 18.5037 142.085 18.5742C142.261 18.6011 142.408 18.6903 142.526 18.8419C142.644 18.9934 142.716 19.2288 142.739 19.5479C142.749 19.6808 142.742 20.029 142.718 20.5924C142.693 21.1559 142.671 21.8394 142.651 22.6432C142.644 23.4459 142.674 24.2794 142.738 25.1437C142.748 25.2766 142.777 25.3948 142.825 25.4981C142.872 25.5882 142.962 25.6283 143.095 25.6183C143.627 25.5784 144.157 25.4316 144.687 25.1779C145.228 24.9099 145.746 24.5969 146.241 24.2389C146.747 23.8665 147.202 23.5049 147.603 23.1538C148.017 22.7885 148.362 22.4884 148.639 22.2537C148.928 22.0047 149.118 21.8768 149.212 21.8698C149.664 21.8358 149.907 22.0449 149.941 22.4969C149.95 22.6166 149.822 22.8802 149.559 23.2878C149.307 23.681 148.954 24.1421 148.499 24.671C148.043 25.1866 147.527 25.7066 146.952 26.2312C146.388 26.7415 145.792 27.174 145.164 27.5287C144.549 27.8825 143.942 28.0818 143.344 28.1267C142.612 28.1816 142.041 28.0507 141.629 27.734C141.231 27.4162 140.93 26.9709 140.727 26.3978C140.536 25.8105 140.405 25.145 140.336 24.4015C139.731 25.423 139.091 26.3401 138.417 27.1529C137.755 27.9514 137.088 28.5965 136.416 29.0881C135.744 29.5798 135.103 29.8486 134.491 29.8945ZM140.801 19.3725C139.545 20.0953 138.429 20.9011 137.453 21.79C136.475 22.6657 135.714 23.5652 135.168 24.4887C134.636 25.4111 134.4 26.2779 134.461 27.0889C134.478 27.315 134.593 27.42 134.805 27.404C135.058 27.385 135.38 27.2138 135.77 26.8904C136.173 26.5659 136.603 26.1459 137.059 25.6303C137.514 25.1014 137.965 24.5193 138.412 23.8841C138.858 23.2355 139.27 22.5762 139.647 21.906C140.025 21.2359 140.318 20.5988 140.527 19.9948C140.604 19.7751 140.695 19.5677 140.801 19.3725ZM160.363 17.0813C160.375 17.2409 160.332 17.3845 160.235 17.5121C160.138 17.6398 160.012 17.7428 159.857 17.8213C159.638 17.9313 159.255 18.0804 158.707 18.2686C158.16 18.4568 157.494 18.6739 156.71 18.92C155.94 19.165 155.11 19.4212 154.221 19.6885C153.331 19.9426 152.44 20.19 151.549 20.4307C151.299 21.7331 151.046 23.0758 150.789 24.4589C150.53 25.8288 150.271 27.1787 150.01 28.5086C149.912 28.984 149.779 29.3483 149.61 29.6016C149.443 29.8682 149.134 30.0185 148.681 30.0524C148.19 30.0894 147.845 29.9548 147.648 29.6487C147.466 29.3548 147.414 28.9375 147.494 28.3967C147.731 26.9215 147.949 25.548 148.147 24.2762C148.359 23.0034 148.53 21.9745 148.658 21.1893C147.87 21.3822 147.18 21.541 146.588 21.6657C145.994 21.7771 145.571 21.8356 145.317 21.8413C145.036 21.8357 144.795 21.7401 144.594 21.5547C144.393 21.3692 144.288 21.1297 144.279 20.8362C144.286 20.5683 144.388 20.3333 144.587 20.1312C144.785 19.9157 145.029 19.7771 145.318 19.7153C145.727 19.6444 146.255 19.5447 146.9 19.416C147.546 19.2873 148.257 19.1403 149.033 18.975C149.155 18.2839 149.302 17.5709 149.474 16.836C149.645 16.0877 149.825 15.3722 150.015 14.6895C150.217 13.9924 150.411 13.3828 150.6 12.8605C150.788 12.3383 150.966 11.9572 151.135 11.7172C151.269 11.5334 151.438 11.3869 151.644 11.2779C151.863 11.1678 152.079 11.1048 152.292 11.0889C152.571 11.0679 152.804 11.1506 152.992 11.3371C153.18 11.5236 153.284 11.7498 153.304 12.0157C153.312 12.122 153.314 12.2356 153.309 12.3562C153.304 12.4636 153.286 12.5719 153.254 12.6813C153.051 13.3651 152.839 14.1899 152.617 15.1559C152.409 16.1209 152.194 17.1799 151.973 18.333C152.959 18.1119 153.926 17.8923 154.872 17.6741C155.831 17.4417 156.697 17.2296 157.472 17.0377C158.258 16.8315 158.887 16.6573 159.358 16.515C159.617 16.402 159.844 16.4049 160.04 16.5239C160.236 16.6296 160.343 16.8154 160.363 17.0813ZM156.823 27.7564C156.451 27.7843 156.109 27.683 155.797 27.4523C155.499 27.2206 155.329 26.819 155.286 26.2472C155.263 25.9414 155.27 25.5063 155.308 24.9419C155.359 24.3765 155.433 23.7625 155.531 23.1C155.627 22.4243 155.737 21.7541 155.861 21.0897C155.998 20.4242 156.134 19.8323 156.269 19.3141C156.403 18.7826 156.527 18.3855 156.641 18.1229C156.791 17.8041 156.937 17.606 157.078 17.5286C157.231 17.4368 157.381 17.3854 157.528 17.3744C157.794 17.3545 158.046 17.4158 158.284 17.5584C158.535 17.6999 158.681 18.0433 158.722 18.5884C158.738 18.8012 158.724 19.1499 158.68 19.6345C158.635 20.1058 158.576 20.6585 158.504 21.2924C158.431 21.9262 158.346 22.5811 158.25 23.2569C158.167 23.9316 158.082 24.5732 157.994 25.1815C157.918 25.7755 157.855 26.2749 157.805 26.6798C157.764 27.0172 157.643 27.2736 157.442 27.4492C157.255 27.637 157.049 27.7394 156.823 27.7564ZM158.197 15.3386C157.758 15.3716 157.343 15.2757 156.952 15.051C156.56 14.8131 156.343 14.4215 156.302 13.8764C156.268 13.4243 156.354 13.0502 156.559 12.754C156.764 12.4578 157.015 12.2384 157.312 12.0958C157.621 11.9389 157.895 11.8514 158.134 11.8335C158.374 11.8155 158.644 11.8487 158.944 11.9331C159.244 12.0042 159.51 12.1647 159.742 12.4147C159.987 12.6503 160.128 13.0075 160.164 13.4861C160.188 13.8052 160.097 14.1062 159.891 14.3891C159.684 14.6587 159.419 14.8791 159.098 15.0503C158.79 15.2205 158.49 15.3166 158.197 15.3386ZM163.55 27.512C162.805 27.5679 162.148 27.4434 161.577 27.1387C161.006 26.8472 160.555 26.4465 160.223 25.9367C159.889 25.4135 159.701 24.8661 159.658 24.2943C159.586 23.337 159.666 22.4419 159.898 21.6089C160.128 20.7626 160.458 19.989 160.887 19.2883C161.315 18.5743 161.788 17.937 162.308 17.3765C162.84 16.8151 163.36 16.3415 163.866 15.9559C164.384 15.556 164.849 15.2536 165.262 15.0488C165.673 14.8307 165.979 14.7142 166.178 14.6992C166.537 14.6722 166.796 14.7331 166.954 14.8816C167.124 15.0159 167.223 15.2559 167.249 15.6016C167.264 15.801 167.135 16.0513 166.864 16.3525C166.605 16.6527 166.257 16.9997 165.819 17.3937C165.394 17.7866 164.945 18.2281 164.474 18.7181C164.003 19.2081 163.555 19.7498 163.132 20.3431C162.722 20.9355 162.396 21.5751 162.153 22.2618C161.924 22.9476 161.839 23.6827 161.897 24.4672C161.919 24.7597 161.99 24.9817 162.108 25.1333C162.24 25.2838 162.438 25.3491 162.704 25.3292C163.462 25.2723 164.263 25.0784 165.107 24.7476C165.964 24.4025 166.809 23.9914 167.642 23.5143C168.488 23.023 169.279 22.5223 170.016 22.0123C170.767 21.5014 171.408 21.0454 171.939 20.6445C172.153 20.468 172.337 20.3272 172.489 20.2221C172.642 20.1171 172.751 20.0621 172.818 20.0571C173.217 20.0271 173.432 20.2182 173.463 20.6304C173.479 20.8431 173.34 21.141 173.048 21.5239C172.711 22.0172 172.242 22.5338 171.64 23.0737C171.052 23.6126 170.39 24.137 169.653 24.647C168.929 25.1559 168.181 25.6199 167.411 26.0387C166.653 26.4566 165.937 26.7979 165.261 27.0626C164.586 27.3272 164.015 27.477 163.55 27.512ZM171.609 27.1074C171.183 27.1393 170.789 27.0486 170.425 26.8352C170.063 26.6352 169.768 26.3565 169.54 25.9992C169.312 25.6286 169.181 25.2239 169.148 24.7851C169.086 23.9608 169.205 23.1429 169.505 22.3315C169.819 21.5191 170.248 20.7381 170.794 19.9884C171.339 19.2388 171.942 18.5451 172.603 17.9071C173.276 17.2549 173.949 16.6896 174.622 16.2112C175.308 15.7318 175.934 15.3505 176.501 15.0673C177.081 14.783 177.538 14.6284 177.87 14.6034C178.256 14.5745 178.575 14.6374 178.827 14.7923C179.092 14.9329 179.237 15.176 179.263 15.5217C179.271 15.6281 179.251 15.7165 179.203 15.787C179.378 15.8139 179.526 15.9031 179.644 16.0547C179.762 16.2063 179.833 16.4416 179.857 16.7607C179.867 16.8937 179.86 17.2418 179.836 17.8053C179.811 18.3687 179.789 19.0523 179.769 19.856C179.762 20.6588 179.791 21.4922 179.856 22.3565C179.866 22.4894 179.895 22.6076 179.943 22.711C179.99 22.8011 180.08 22.8411 180.213 22.8311C180.745 22.7912 181.275 22.6444 181.804 22.3907C182.346 22.1227 182.864 21.8097 183.358 21.4517C183.865 21.0794 184.32 20.7177 184.721 20.3666C185.135 20.0013 185.48 19.7013 185.757 19.4666C186.045 19.2176 186.236 19.0896 186.329 19.0826C186.781 19.0487 187.024 19.2577 187.058 19.7098C187.067 19.8294 186.94 20.093 186.677 20.5006C186.425 20.8938 186.072 21.3549 185.617 21.8838C185.161 22.3994 184.645 22.9195 184.07 23.4441C183.506 23.9543 182.91 24.3868 182.282 24.7416C181.667 25.0953 181.06 25.2946 180.461 25.3396C179.73 25.3945 179.159 25.2635 178.747 24.9468C178.349 24.6291 178.048 24.1837 177.845 23.6106C177.653 23.0233 177.523 22.3579 177.454 21.6143C176.849 22.6358 176.209 23.5529 175.535 24.3657C174.873 25.1642 174.206 25.8093 173.534 26.301C172.862 26.7926 172.221 27.0615 171.609 27.1074ZM177.919 16.5854C176.663 17.3081 175.547 18.114 174.57 19.0029C173.593 19.8785 172.832 20.778 172.286 21.7015C171.754 22.624 171.518 23.4907 171.579 24.3018C171.596 24.5278 171.711 24.6328 171.923 24.6168C172.176 24.5979 172.497 24.4267 172.888 24.1032C173.291 23.7787 173.721 23.3587 174.177 22.8431C174.632 22.3142 175.083 21.7322 175.53 21.0969C175.976 20.4484 176.388 19.789 176.765 19.1189C177.143 18.4487 177.436 17.8116 177.645 17.2076C177.722 16.9879 177.813 16.7805 177.919 16.5854ZM188.043 26.114C186.847 26.2039 185.875 25.9091 185.129 25.2297C184.395 24.5361 183.977 23.5045 183.874 22.135C183.818 21.3905 183.852 20.5121 183.977 19.4999C184.1 18.4745 184.28 17.3913 184.515 16.2505C184.762 15.0954 185.031 13.9521 185.32 12.8206C185.623 11.6881 185.925 10.6358 186.226 9.66386C186.528 8.6919 186.794 7.87633 187.026 7.21716C187.228 6.70724 187.548 6.43581 187.987 6.40286C188.266 6.3819 188.499 6.45135 188.685 6.61122C188.884 6.77008 188.998 7.04231 189.027 7.42789C189.041 7.61403 188.978 8.02655 188.839 8.66543C188.7 9.30432 188.512 10.0939 188.275 11.0343C188.05 11.9604 187.804 12.9616 187.538 14.038C187.284 15.1133 187.044 16.1943 186.818 17.2809C186.606 18.3666 186.442 19.3884 186.327 20.3464C186.21 21.291 186.177 22.0891 186.226 22.7406C186.246 23.0066 186.335 23.2138 186.493 23.3624C186.664 23.5099 186.877 23.5742 187.129 23.5553C187.674 23.5143 188.225 23.3727 188.782 23.1303C189.352 22.8869 189.905 22.5914 190.44 22.2437C190.989 21.8949 191.503 21.5287 191.982 21.1451C192.462 20.7615 192.889 20.4018 193.265 20.066C193.653 19.716 193.967 19.4384 194.205 19.2333C194.519 18.9557 194.735 18.8124 194.855 18.8034C195.307 18.7695 195.55 18.9719 195.583 19.4106C195.591 19.517 195.474 19.7464 195.233 20.0987C195.029 20.4082 194.738 20.8045 194.36 21.2875C193.981 21.7705 193.539 22.2851 193.032 22.8313C192.537 23.3632 192 23.8714 191.421 24.3561C190.856 24.8398 190.284 25.2437 189.707 25.5679C189.13 25.892 188.575 26.0741 188.043 26.114ZM196.841 25.4534C195.644 25.5433 194.673 25.2485 193.926 24.5691C193.192 23.8755 192.774 22.8439 192.671 21.4745C192.615 20.7299 192.65 19.8515 192.774 18.8393C192.898 17.8139 193.077 16.7307 193.312 15.5899C193.56 14.4348 193.828 13.2915 194.118 12.16C194.42 11.0275 194.722 9.97523 195.024 9.00327C195.325 8.0313 195.592 7.21573 195.823 6.55657C196.025 6.04665 196.346 5.77521 196.785 5.74227C197.064 5.7213 197.296 5.79075 197.482 5.95062C197.681 6.10949 197.795 6.38171 197.824 6.76729C197.838 6.95344 197.776 7.36595 197.636 8.00484C197.497 8.64372 197.309 9.43335 197.072 10.3737C196.848 11.2998 196.602 12.301 196.335 13.3774C196.082 14.4527 195.842 15.5337 195.616 16.6203C195.403 17.706 195.239 18.7278 195.124 19.6858C195.008 20.6304 194.974 21.4285 195.023 22.08C195.043 22.346 195.132 22.5532 195.29 22.7018C195.462 22.8493 195.674 22.9136 195.927 22.8947C196.472 22.8537 197.023 22.7121 197.579 22.4697C198.149 22.2263 198.702 21.9308 199.238 21.5831C199.786 21.2343 200.3 20.8681 200.78 20.4845C201.259 20.1009 201.687 19.7412 202.063 19.4054C202.451 19.0554 202.764 18.7778 203.003 18.5727C203.316 18.2951 203.533 18.1518 203.652 18.1428C204.105 18.1089 204.347 18.3113 204.38 18.7501C204.388 18.8564 204.271 19.0858 204.031 19.4382C203.826 19.7476 203.535 20.1439 203.157 20.6269C202.779 21.1099 202.336 21.6245 201.829 22.1707C201.334 22.7026 200.797 23.2108 200.219 23.6955C199.653 24.1792 199.082 24.5831 198.505 24.9073C197.927 25.2314 197.373 25.4135 196.841 25.4534ZM205.617 29.3071C204.872 29.363 204.191 29.3674 203.572 29.3202C202.955 29.2864 202.346 29.1983 201.747 29.0561C201.148 28.9139 200.498 28.7154 199.797 28.4605C199.508 28.3485 199.265 28.2263 199.068 28.0941C198.871 27.9618 198.761 27.7494 198.739 27.4569C198.707 27.0314 198.816 26.6957 199.065 26.4497C199.301 26.218 199.646 26.0852 200.098 26.0512C200.337 26.0332 200.649 26.0901 201.033 26.2216C201.418 26.3665 201.858 26.5274 202.353 26.7042C202.862 26.8933 203.421 27.0451 204.032 27.1597C204.643 27.2877 205.294 27.3257 205.986 27.2737C206.69 27.2208 207.327 26.8789 207.894 26.248C208.462 25.617 208.892 24.7557 209.184 23.6641C209.491 22.5848 209.591 21.3271 209.483 19.8912C209.458 19.5588 209.424 19.2003 209.382 18.8157C209.339 18.4178 209.294 18 209.248 17.5622C208.837 18.5023 208.382 19.3855 207.882 20.2119C207.383 21.0383 206.852 21.7199 206.291 22.2568C205.742 22.7794 205.168 23.0631 204.57 23.1081C203.839 23.163 203.294 23.0301 202.935 22.7093C202.589 22.3743 202.387 21.8212 202.329 21.0501C202.28 20.3986 202.274 19.6837 202.309 18.9056C202.356 18.1131 202.436 17.3115 202.549 16.5008C202.662 15.6901 202.805 14.9172 202.977 14.1823C203.161 13.433 203.367 12.7825 203.593 12.2307C203.763 11.8302 204.054 11.6144 204.467 11.5835C204.732 11.5635 205.008 11.6698 205.293 11.9025C205.591 12.1341 205.756 12.4627 205.788 12.8882C205.806 13.1275 205.772 13.4777 205.686 13.9387C205.601 14.3998 205.493 14.9226 205.363 15.5073C205.245 16.0778 205.124 16.6819 204.998 17.3198C204.871 17.9444 204.77 18.5603 204.695 19.1676C204.619 19.7616 204.599 20.298 204.635 20.7766C204.639 20.8298 204.681 20.8534 204.761 20.8474C204.921 20.8354 205.123 20.6865 205.369 20.4006C205.628 20.1004 205.906 19.7185 206.206 19.2547C206.518 18.7767 206.826 18.2588 207.132 17.701C207.45 17.1289 207.755 16.5645 208.048 16.0077C208.34 15.4509 208.603 14.9431 208.836 14.4844C208.78 14.2747 208.74 14.0905 208.714 13.932C208.701 13.7591 208.69 13.6129 208.681 13.4932C208.64 12.9481 208.7 12.489 208.859 12.1161C209.031 11.7421 209.403 11.5336 209.975 11.4907C210.347 11.4628 210.644 11.5809 210.864 11.8451C211.084 12.0961 211.212 12.4675 211.249 12.9595C211.265 13.1722 211.25 13.4207 211.204 13.7049C211.158 13.9758 211.057 14.4113 210.901 15.0112L211.074 14.3765C211.284 15.5642 211.463 16.6203 211.613 17.5451C211.776 18.4688 211.892 19.3894 211.961 20.3068C212.091 22.0352 211.91 23.553 211.42 24.86C210.944 26.1794 210.207 27.2242 209.209 27.9944C208.224 28.7637 207.026 29.2012 205.617 29.3071ZM100.66 60.6341C100.381 60.6551 100.11 60.6152 99.8487 60.5145C99.5871 60.4138 99.3436 60.1981 99.1182 59.8674C98.8938 59.55 98.6973 59.07 98.5287 58.4275C98.3592 57.7717 98.2334 56.8986 98.1516 55.8084C98.0747 54.7846 98.0545 53.8033 98.091 52.8646C98.1265 51.9126 98.2165 51.0635 98.361 50.3173C98.5045 49.5577 98.6999 48.9547 98.9472 48.5083C99.1935 48.0486 99.4894 47.8057 99.8351 47.7798C100.141 47.7568 100.405 47.8841 100.626 48.1616C100.847 48.4392 100.979 48.8505 101.019 49.3956C101.051 49.8211 101.04 50.3835 100.986 51.0829C100.945 51.7813 100.887 52.5343 100.814 53.3421C100.74 54.1365 100.678 54.91 100.628 55.6626C100.589 56.4008 100.59 57.0292 100.629 57.5478C100.636 57.6408 100.656 57.7329 100.69 57.824C100.722 57.9018 100.765 57.9386 100.818 57.9347C100.898 57.9287 101.017 57.7259 101.174 57.3263C101.331 56.9268 101.519 56.4046 101.738 55.7597C101.969 55.1005 102.217 54.3867 102.48 53.6181C102.756 52.8486 103.047 52.0914 103.352 51.3464C103.669 50.5872 103.993 49.9077 104.322 49.3081C104.604 48.7922 104.955 48.3848 105.374 48.0859C105.792 47.787 106.188 47.6236 106.56 47.5957C106.893 47.5707 107.225 47.6327 107.557 47.7816C107.902 47.9295 108.194 48.1683 108.433 48.498C108.672 48.8277 108.811 49.2518 108.849 49.7704C108.864 49.9698 108.863 50.3042 108.845 50.7735C108.839 51.2286 108.824 51.7511 108.802 52.3411C108.778 52.9179 108.755 53.5012 108.733 54.0912C108.709 54.668 108.688 55.1843 108.669 55.6404C108.663 56.0954 108.667 56.416 108.681 56.6022C108.683 56.6288 108.685 56.662 108.688 56.7019C108.699 56.8482 108.717 56.9939 108.741 57.1392C108.764 57.2711 108.809 57.3346 108.876 57.3296C109.022 57.3186 109.196 57.1385 109.397 56.7891C109.61 56.4254 109.841 55.9468 110.091 55.3531C110.354 54.7584 110.625 54.0962 110.905 53.3666C111.184 52.6369 111.469 51.8869 111.758 51.1163C112.061 50.3315 112.359 49.5871 112.654 48.883C112.877 48.2913 113.076 47.9154 113.251 47.7551C113.425 47.5816 113.599 47.4883 113.771 47.4754C114.011 47.4574 114.272 47.5581 114.556 47.7774C114.84 47.9968 115.001 48.3591 115.039 48.8644C115.052 49.0372 115.058 49.2105 115.058 49.3844C115.058 49.5582 115.025 49.7412 114.959 49.9334C114.528 51.3162 114.069 52.6008 113.584 53.7872C113.11 54.9592 112.625 55.9851 112.13 56.8646C111.634 57.7442 111.145 58.4362 110.661 58.9404C110.178 59.4447 109.71 59.7139 109.258 59.7478C108.327 59.8177 107.591 59.6256 107.048 59.1716C106.518 58.7033 106.222 58.0437 106.158 57.1928C106.134 56.8737 106.123 56.4666 106.126 55.9717C106.128 55.4635 106.134 54.9148 106.143 54.3258C106.165 53.7225 106.187 53.1258 106.209 52.5358C106.232 51.9458 106.258 51.4023 106.287 50.9054C106.3 50.7173 106.258 50.6001 106.161 50.5539C106.077 50.5067 106.008 50.572 105.955 50.7499C105.816 51.2149 105.667 51.7208 105.507 52.2676C105.348 52.8145 105.196 53.2938 105.053 53.7057C104.824 54.3914 104.552 55.1272 104.236 55.913C103.934 56.6978 103.596 57.4453 103.222 58.1553C102.846 58.8521 102.442 59.4306 102.008 59.8911C101.575 60.3515 101.125 60.5991 100.66 60.6341ZM120.005 59.1815C119.274 59.2364 118.607 59.0859 118.006 58.7299C117.405 58.3873 116.912 57.8761 116.527 57.1964C116.155 56.5156 115.933 55.7033 115.862 54.7593C115.786 53.7488 115.832 52.7559 116 51.7806C116.166 50.792 116.406 49.8982 116.721 49.0991C117.034 48.2867 117.36 47.6405 117.698 47.1604C118.049 46.6661 118.364 46.4085 118.643 46.3875C118.936 46.3656 119.182 46.434 119.381 46.5929C119.593 46.7508 119.712 47.0025 119.738 47.3482C119.742 47.4014 119.697 47.5987 119.602 47.9401C119.52 48.2672 119.411 48.6898 119.276 49.208C119.14 49.713 119.009 50.2777 118.882 50.9023C118.754 51.5136 118.654 52.1362 118.581 52.7701C118.522 53.403 118.513 54.0053 118.556 54.577C118.608 55.2684 118.756 55.8122 119 56.2084C119.243 56.6046 119.717 56.7762 120.422 56.7233C121.14 56.6694 121.823 56.4109 122.47 55.9478C123.13 55.4837 123.754 54.882 124.34 54.1427C124.925 53.3901 125.478 52.5597 125.998 51.6516C125.311 51.7567 124.661 51.8322 124.05 51.8781C123.637 51.9091 123.335 51.8916 123.143 51.8258C122.95 51.7468 122.821 51.6361 122.757 51.4938C122.706 51.3506 122.673 51.1792 122.658 50.9798C122.637 50.7006 122.745 50.4384 122.98 50.1934C123.216 49.9484 123.486 49.8078 123.791 49.7716C124.36 49.6887 124.935 49.5988 125.516 49.5017C126.11 49.4036 126.697 49.2993 127.277 49.1889C127.657 48.3715 128.004 47.5632 128.319 46.7641C128.645 45.9507 128.942 45.1863 129.209 44.471C129.45 43.5838 129.716 42.7615 130.007 42.0043C130.31 41.2328 130.611 40.6085 130.909 40.1315C131.208 39.6545 131.503 39.405 131.796 39.383C132.141 39.3571 132.408 39.4307 132.594 39.6038C132.795 39.776 132.906 40.015 132.929 40.3208C132.936 40.4139 132.89 40.6914 132.791 41.1535C132.692 41.6155 132.55 42.2145 132.364 42.9504C132.192 43.6854 131.994 44.5159 131.769 45.442C131.557 46.3538 131.329 47.3203 131.084 48.3414C132.332 48.0338 133.466 47.7414 134.488 47.4641C135.524 47.1858 136.369 46.9552 137.024 46.7723C137.678 46.5894 138.072 46.493 138.205 46.483C138.471 46.463 138.7 46.5729 138.892 46.8125C139.083 47.0389 139.187 47.2651 139.204 47.4911C139.214 47.624 138.981 47.8154 138.505 48.065C138.042 48.3137 137.401 48.5958 136.583 48.9113C135.776 49.2126 134.851 49.5294 133.806 49.8619C132.774 50.1801 131.686 50.4757 130.543 50.7487C130.303 51.823 130.075 52.8764 129.858 53.9089C129.654 54.9271 129.484 55.8691 129.348 56.735C129.283 57.1143 129.152 57.4116 128.954 57.627C128.768 57.8282 128.503 57.9417 128.157 57.9676C127.798 57.9946 127.526 57.9281 127.34 57.7683C127.155 57.6217 127.047 57.3357 127.015 56.9102C127.012 56.8703 127.035 56.648 127.085 56.2431C127.147 55.8239 127.222 55.3102 127.31 54.7019C127.41 54.0793 127.503 53.4439 127.588 52.7957C126.886 53.9449 126.128 54.9912 125.317 55.9346C124.505 56.878 123.653 57.6373 122.76 58.2124C121.867 58.7876 120.949 59.1106 120.005 59.1815ZM118.999 44.977C118.56 45.0099 118.191 44.9039 117.892 44.6589C117.591 44.4007 117.427 44.0854 117.399 43.7131C117.366 43.2611 117.503 42.863 117.811 42.519C118.133 42.1739 118.526 41.9839 118.992 41.949C119.51 41.91 119.913 42.0202 120.2 42.2794C120.5 42.5377 120.668 42.8995 120.703 43.3648C120.728 43.6972 120.58 44.0426 120.259 44.401C119.937 44.746 119.517 44.938 118.999 44.977ZM136.598 58.6174C135.986 58.6633 135.535 58.5234 135.243 58.1977C134.951 57.872 134.78 57.3767 134.73 56.7119C134.684 56.1003 134.737 55.2941 134.889 54.2932C135.054 53.2781 135.283 52.1444 135.577 50.8922C135.883 49.6257 136.233 48.3225 136.627 46.9826C137.02 45.6294 137.435 44.3012 137.872 42.9982C138.308 41.6818 138.739 40.4729 139.164 39.3712C139.368 38.8879 139.597 38.5498 139.85 38.357C140.103 38.1642 140.389 38.0558 140.708 38.0319C141.014 38.0089 141.28 38.0759 141.505 38.2327C141.73 38.3763 141.856 38.6276 141.883 38.9866C141.889 39.0664 141.805 39.3802 141.633 39.928C141.459 40.4625 141.231 41.1615 140.948 42.0251C140.664 42.8754 140.355 43.8346 140.021 44.9026C139.685 45.9574 139.354 47.0586 139.025 48.2064C138.696 49.341 138.405 50.4592 138.154 51.5611C137.902 52.663 137.711 53.6802 137.581 54.6126C137.999 53.9527 138.446 53.2239 138.921 52.4261C139.408 51.614 139.902 50.8081 140.404 50.0083C140.918 49.1942 141.423 48.4476 141.921 47.7684C142.431 47.0883 142.911 46.5375 143.361 46.1159C143.811 45.6944 144.215 45.4702 144.574 45.4432C145.239 45.3933 145.784 45.5395 146.211 45.8818C146.65 46.2099 146.903 46.8193 146.97 47.7101C147.001 48.1223 146.959 48.6269 146.843 49.2239C146.727 49.8076 146.579 50.427 146.401 51.0822C146.235 51.7231 146.095 52.342 145.979 52.939C145.863 53.536 145.822 54.0539 145.855 54.4927C145.873 54.732 145.995 54.8432 146.221 54.8262C146.873 54.7773 147.52 54.5883 148.164 54.2591C148.821 53.929 149.44 53.5349 150.021 53.0768C150.614 52.6044 151.147 52.1431 151.622 51.693C152.108 51.2286 152.501 50.8448 152.799 50.5417C153.009 50.3119 153.204 50.1569 153.386 50.0764C153.566 49.9827 153.736 49.9298 153.895 49.9178C154.44 49.8769 154.733 50.129 154.774 50.6741C154.782 50.7805 154.772 50.9149 154.744 51.0775C154.715 51.2267 154.603 51.4224 154.407 51.6644C154.212 51.9064 153.916 52.2494 153.522 52.6935C153.127 53.1377 152.662 53.6139 152.125 54.1222C151.601 54.6294 151.023 55.1208 150.39 55.5962C149.77 56.0573 149.124 56.4467 148.453 56.7646C147.781 57.0824 147.12 57.2658 146.468 57.3147C145.484 57.3886 144.705 57.1663 144.132 56.6478C143.559 56.1426 143.237 55.418 143.166 54.474C143.117 53.8225 143.189 52.9948 143.381 51.9909C143.572 50.9738 143.795 49.9342 144.049 48.8721C143.618 49.3591 143.173 49.9341 142.715 50.5969C142.255 51.2465 141.792 51.9364 141.326 52.6667C140.858 53.3837 140.397 54.0936 139.941 54.7964C139.498 55.4848 139.071 56.1186 138.66 56.6976C138.248 57.2634 137.868 57.7198 137.519 58.0669C137.171 58.4139 136.864 58.5975 136.598 58.6174ZM159.921 55.8432C159.602 55.8672 159.316 55.7951 159.063 55.6269C158.809 55.4587 158.66 55.0688 158.614 54.4572C158.593 54.178 158.659 53.7251 158.813 53.0985C158.966 52.4719 159.178 51.734 159.449 50.8847C159.732 50.0211 160.051 49.1079 160.406 48.1453C160.762 47.1826 161.138 46.2251 161.534 45.2727C161.931 44.3204 162.319 43.4355 162.699 42.6181C163.079 41.8007 163.434 41.1054 163.766 40.5324C164.109 39.945 164.394 39.5492 164.619 39.3451C164.946 39.0665 165.282 38.9143 165.628 38.8883C165.814 38.8743 165.995 38.8808 166.171 38.9077C166.36 38.9336 166.518 38.9886 166.644 39.0727C166.937 39.2246 167.208 39.5385 167.457 40.0145C167.719 40.4762 167.962 41.0396 168.186 41.7047C168.423 42.3688 168.631 43.0886 168.809 43.8641C169 44.6252 169.171 45.3813 169.321 46.1321C169.821 46.0277 170.164 45.9685 170.35 45.9545C170.749 45.9246 171.106 45.958 171.421 46.0547C171.734 46.1381 171.911 46.3521 171.95 46.6968C172.002 47.0272 171.916 47.3144 171.694 47.5584C171.485 47.8014 171.205 47.9896 170.854 48.1229C170.698 48.1881 170.319 48.3034 169.717 48.469C169.807 49.1441 169.87 49.7144 169.905 50.1797C169.994 51.3631 169.997 52.2855 169.913 52.9469C169.842 53.6074 169.717 54.0848 169.539 54.379C169.374 54.6721 169.187 54.8533 168.978 54.9225C168.783 55.0039 168.606 55.0507 168.447 55.0626C168.434 55.0636 168.42 55.0646 168.407 55.0656C168.021 55.0946 167.728 55.0163 167.527 54.8309C167.339 54.6444 167.228 54.3185 167.193 53.8531L167.086 52.4371C167.053 51.9984 167.01 51.5069 166.956 50.9628C166.901 50.4186 166.831 49.8423 166.746 49.2337C165.971 49.4255 165.197 49.6174 164.422 49.8092C163.66 49.9868 163.003 50.1431 162.452 50.2781C162.244 50.8954 162.065 51.4504 161.915 51.943C161.764 52.4223 161.665 52.7974 161.618 53.0683C161.468 53.7348 161.32 54.2607 161.175 54.646C161.029 55.0179 160.882 55.283 160.734 55.4413C160.599 55.6118 160.467 55.7153 160.336 55.7519C160.206 55.8018 160.068 55.8322 159.921 55.8432ZM163.364 47.7426C163.913 47.5678 164.442 47.4077 164.953 47.2624C165.462 47.1038 165.946 46.9604 166.405 46.8324C166.276 46.0131 166.136 45.2147 165.984 44.4372C165.832 43.6597 165.674 42.9697 165.508 42.3671C165.212 43.0578 164.867 43.886 164.471 44.8517C164.088 45.803 163.719 46.7667 163.364 47.7426ZM177.224 43.2923C176.586 43.3402 176.129 43.3077 175.853 43.1947C175.577 43.0817 175.406 42.9342 175.339 42.752C175.272 42.5699 175.233 42.4123 175.223 42.2794C175.222 42.2661 175.222 42.2594 175.222 42.2594C175.2 41.9669 175.312 41.6777 175.558 41.3918C175.802 41.0926 176.16 40.8719 176.631 40.7296C177.024 40.6199 177.49 40.5046 178.029 40.3839C178.58 40.2489 179.159 40.1252 179.766 40.0128C180.385 39.8861 180.979 39.7814 181.548 39.6985C182.116 39.6157 182.62 39.5578 183.059 39.5249C183.644 39.481 184.102 39.5334 184.434 39.6823C184.766 39.8179 184.999 39.9876 185.134 40.1913C185.283 40.3941 185.363 40.5686 185.374 40.7148C185.384 40.8478 185.361 40.9833 185.305 41.1212C185.248 41.2592 185.092 41.4046 184.836 41.5575C184.593 41.7094 184.197 41.8662 183.648 42.0278C183.098 42.1894 182.336 42.3603 181.36 42.5406C181.268 42.5609 181.169 42.5816 181.064 42.6029C181.014 43.1816 180.952 43.8749 180.879 44.6826C180.805 45.477 180.72 46.3124 180.626 47.1886C180.543 48.0505 180.459 48.8792 180.371 49.6746C180.296 50.4558 180.226 51.1229 180.16 51.676C180.702 51.5819 181.177 51.5061 181.587 51.4485C182.011 51.39 182.296 51.3552 182.442 51.3442C182.907 51.3093 183.234 51.3851 183.422 51.5715C183.609 51.7447 183.714 51.9842 183.737 52.29C183.745 52.4096 183.547 52.6118 183.14 52.8963C182.734 53.1809 182.163 53.4979 181.427 53.8473C180.704 54.1957 179.866 54.5194 178.912 54.8183C178.285 55.0125 177.662 55.1729 177.043 55.2996C176.424 55.4263 175.975 55.5002 175.696 55.5211C175.151 55.5621 174.791 55.4888 174.616 55.3013C174.455 55.1129 174.363 54.8657 174.34 54.5599C174.32 54.294 174.379 54.0155 174.518 53.7243C174.67 53.4321 174.894 53.2147 175.191 53.072C175.501 52.9284 175.845 52.7889 176.223 52.6536C176.6 52.5183 176.992 52.3953 177.398 52.2846C177.399 51.9369 177.418 51.4742 177.455 50.8965C177.491 50.3187 177.531 49.6873 177.573 49.0023C177.627 48.3029 177.681 47.5969 177.735 46.8842C177.801 46.1572 177.863 45.4773 177.923 44.8444C177.994 44.1972 178.053 43.6379 178.098 43.1666C177.715 43.2354 177.424 43.2774 177.224 43.2923Z" fill="white"/>
<path fill-rule="evenodd" clip-rule="evenodd" d="M58.1304 98.6845C59.3699 97.4769 61.0785 94.655 62.1944 91.9739C65.3376 84.4196 65.0747 76.8263 61.5295 72.7714L60.2603 71.32L62.164 69.281C66.076 65.0913 70.4951 61.4867 74.5063 59.2146C77.3304 57.6147 77.7611 57.0653 76.5447 56.6124C73.6832 55.5469 65.2109 60.9854 59.2167 67.7357L57.5218 69.6446L55.4817 69.116C52.9929 68.4714 48.7356 68.5265 45.3929 69.2465C41.9452 69.9896 33.2689 74.4022 30.3753 76.8849C26.4601 80.2435 23.7508 83.3765 21.0557 87.6616C17.6204 93.1234 14.0602 101.597 13.4742 105.705C13.3101 106.855 13.1066 107.84 13.022 107.893C12.9371 107.946 12.3547 107.398 11.7278 106.674C9.63223 104.257 8.86676 104.907 9.31814 108.722C9.60103 111.114 10.9782 113.45 12.8182 114.66C13.5119 115.116 14.1707 115.675 14.2823 115.902C14.5631 116.474 17.177 115.219 18.703 113.779C20.0112 112.545 25.1595 104.743 25.4858 103.5C25.6537 102.862 25.5629 102.564 25.0545 102.085C23.9997 101.091 22.8756 101.782 21.0956 104.517C18.5844 108.378 17.0876 110.334 16.9093 109.991C16.2877 108.793 17.876 102.991 20.3125 97.5571C23.9776 89.3844 28.2718 83.4238 33.7286 78.9358C36.6979 76.4937 43.0892 73.2714 46.3869 72.5539C50.206 71.7228 55.0665 71.7136 55.1611 72.5369C55.1774 72.6795 54.3353 74.3483 53.2901 76.2454C48.0386 85.775 46.7091 96.2267 50.302 99.7332C50.7586 100.179 51.7521 100.696 52.51 100.883C53.7658 101.193 54.0489 101.136 55.7053 100.249C56.7049 99.7143 57.796 99.0099 58.1304 98.6845ZM53.0197 99.2556C52.7174 99.1898 52.1081 98.7828 51.6657 98.3511C48.795 95.5496 51.0737 85.3091 56.4906 76.6693C57.73 74.6926 58.2613 74.0709 58.616 74.1832C58.8764 74.2656 59.5932 75.1947 60.2094 76.2479C62.1778 79.6133 62.3157 83.5063 60.6714 89.3053C59.5911 93.1163 58.6749 95.0339 56.9343 97.1273C55.7052 98.6055 54.0843 99.4867 53.0197 99.2556Z" fill="white"/>
</svg>
